<svg width="512" height="512" viewBox="0 0 512 512" fill="none" xmlns="http://www.w3.org/2000/svg">
  <rect width="512" height="512" rx="128" fill="#0f172a"/>
  <path d="M116 298L160 193C167 176 184 165 202 165H310C328 165 345 176 352 193L396 298" stroke="#60a5fa" stroke-width="34" stroke-linecap="round"/>
  <path d="M132 294H380V372C380 390 366 404 348 404H334C316 404 302 390 302 372V358H210V372C210 390 196 404 178 404H164C146 404 132 390 132 372V294Z" fill="#2563eb"/>
  <circle cx="199" cy="338" r="29" fill="white"/>
  <circle cx="313" cy="338" r="29" fill="white"/>
  <path d="M218 114H294" stroke="#22c55e" stroke-width="34" stroke-linecap="round"/>
</svg>
